<?xml version="1.0" encoding="utf-8" ?>
<svg baseProfile="tiny" height="100%" version="1.2" width="100%" xmlns="http://www.w3.org/2000/svg" xmlns:ev="http://www.w3.org/2001/xml-events" xmlns:xlink="http://www.w3.org/1999/xlink"><defs /><rect fill="white" height="1080" width="1920" x="0" y="0" /><path d="M 1146,584 L 1145,585 L 1140,585 L 1140,590 L 1139,591 L 1139,673 L 1140,674 L 1140,679 L 1141,680 L 1165,680 L 1165,678 L 1166,677 L 1166,632 L 1167,631 L 1167,626 L 1168,625 L 1168,623 L 1169,622 L 1169,621 L 1171,619 L 1171,618 L 1174,615 L 1175,615 L 1177,613 L 1178,613 L 1179,612 L 1181,612 L 1182,611 L 1186,611 L 1187,610 L 1192,610 L 1193,611 L 1194,611 L 1195,610 L 1195,609 L 1196,608 L 1196,586 L 1194,584 L 1183,584 L 1182,585 L 1180,585 L 1179,586 L 1178,586 L 1177,587 L 1176,587 L 1175,588 L 1174,588 L 1173,589 L 1172,589 L 1171,590 L 1168,590 L 1166,588 L 1166,586 L 1165,585 L 1161,585 L 1160,584 Z" fill="black" /><path d="M 1042,584 L 1041,585 L 1037,585 L 1037,589 L 1036,590 L 1036,650 L 1037,651 L 1037,655 L 1038,656 L 1038,659 L 1039,660 L 1039,662 L 1040,663 L 1040,664 L 1041,665 L 1041,666 L 1043,668 L 1043,669 L 1050,676 L 1051,676 L 1053,678 L 1054,678 L 1055,679 L 1057,679 L 1058,680 L 1060,680 L 1061,681 L 1066,681 L 1067,682 L 1077,682 L 1078,681 L 1082,681 L 1083,680 L 1085,680 L 1086,679 L 1087,679 L 1088,678 L 1089,678 L 1091,676 L 1093,676 L 1094,675 L 1095,676 L 1096,676 L 1098,678 L 1098,679 L 1099,680 L 1122,680 L 1123,679 L 1123,677 L 1124,676 L 1124,588 L 1123,587 L 1123,585 L 1119,585 L 1118,584 L 1103,584 L 1102,585 L 1098,585 L 1097,586 L 1097,639 L 1096,640 L 1097,641 L 1096,642 L 1096,645 L 1095,646 L 1095,647 L 1094,648 L 1094,649 L 1088,655 L 1087,655 L 1086,656 L 1085,656 L 1084,657 L 1074,657 L 1073,656 L 1072,656 L 1070,654 L 1069,654 L 1067,652 L 1067,651 L 1065,649 L 1065,647 L 1064,646 L 1064,644 L 1063,643 L 1063,586 L 1062,585 L 1058,585 L 1057,584 Z" fill="black" /><path d="M 1241,582 L 1240,583 L 1233,583 L 1232,584 L 1229,584 L 1228,585 L 1226,585 L 1225,586 L 1223,586 L 1222,587 L 1221,587 L 1220,588 L 1219,588 L 1216,591 L 1215,591 L 1212,594 L 1212,595 L 1210,597 L 1210,598 L 1208,600 L 1208,601 L 1207,602 L 1207,603 L 1206,604 L 1206,606 L 1205,607 L 1205,614 L 1206,615 L 1229,615 L 1230,614 L 1230,613 L 1232,611 L 1232,610 L 1233,609 L 1234,609 L 1237,606 L 1239,606 L 1240,605 L 1249,605 L 1250,606 L 1251,606 L 1252,607 L 1253,607 L 1256,610 L 1256,611 L 1257,612 L 1257,613 L 1258,614 L 1258,617 L 1254,621 L 1250,621 L 1249,622 L 1229,622 L 1228,623 L 1224,623 L 1223,624 L 1220,624 L 1219,625 L 1217,625 L 1216,626 L 1215,626 L 1213,628 L 1212,628 L 1205,635 L 1205,636 L 1204,637 L 1204,638 L 1203,639 L 1203,640 L 1202,641 L 1202,644 L 1201,645 L 1201,658 L 1202,659 L 1202,662 L 1203,663 L 1203,664 L 1204,665 L 1204,666 L 1205,667 L 1205,668 L 1207,670 L 1207,671 L 1209,673 L 1210,673 L 1214,677 L 1215,677 L 1216,678 L 1217,678 L 1218,679 L 1219,679 L 1220,680 L 1223,680 L 1224,681 L 1228,681 L 1229,682 L 1240,682 L 1241,681 L 1244,681 L 1245,680 L 1247,680 L 1248,679 L 1249,679 L 1250,678 L 1251,678 L 1252,677 L 1254,677 L 1255,676 L 1257,676 L 1261,680 L 1284,680 L 1285,679 L 1285,611 L 1284,610 L 1284,606 L 1283,605 L 1283,603 L 1282,602 L 1282,601 L 1281,600 L 1281,599 L 1280,598 L 1280,597 L 1277,594 L 1277,593 L 1276,592 L 1275,592 L 1272,589 L 1271,589 L 1269,587 L 1268,587 L 1267,586 L 1265,586 L 1264,585 L 1262,585 L 1261,584 L 1258,584 L 1257,583 L 1249,583 L 1248,582 Z" fill="black" /><path d="M 980,560 L 979,561 L 976,561 L 976,563 L 975,564 L 975,579 L 974,580 L 974,581 L 972,583 L 971,583 L 970,584 L 966,584 L 965,585 L 960,585 L 960,592 L 959,593 L 959,599 L 960,600 L 960,606 L 961,607 L 970,607 L 974,611 L 974,612 L 975,613 L 975,657 L 976,658 L 976,661 L 977,662 L 977,663 L 978,664 L 978,665 L 979,666 L 979,667 L 980,668 L 980,669 L 987,676 L 988,676 L 989,677 L 990,677 L 991,678 L 992,678 L 993,679 L 996,679 L 997,680 L 1004,680 L 1005,681 L 1017,681 L 1018,680 L 1023,680 L 1024,679 L 1024,656 L 1017,656 L 1016,655 L 1011,655 L 1010,654 L 1008,654 L 1007,653 L 1006,653 L 1004,651 L 1004,650 L 1003,649 L 1003,648 L 1002,647 L 1002,643 L 1001,642 L 1001,616 L 1002,615 L 1002,611 L 1005,608 L 1006,608 L 1007,607 L 1023,607 L 1023,606 L 1024,605 L 1024,586 L 1023,585 L 1019,585 L 1018,584 L 1006,584 L 1002,580 L 1002,577 L 1001,576 L 1001,562 L 1000,561 L 998,561 L 997,560 Z" fill="black" /><path d="M 837,550 L 835,552 L 835,553 L 834,554 L 834,556 L 833,557 L 833,559 L 832,560 L 832,562 L 831,563 L 831,565 L 830,566 L 830,568 L 829,569 L 829,571 L 828,572 L 828,573 L 827,574 L 827,576 L 826,577 L 826,579 L 825,580 L 825,582 L 824,583 L 824,584 L 823,585 L 823,587 L 822,588 L 822,590 L 821,591 L 821,593 L 820,594 L 820,596 L 819,597 L 819,599 L 818,600 L 818,602 L 817,603 L 817,605 L 816,606 L 816,608 L 815,609 L 815,611 L 814,612 L 814,614 L 813,615 L 813,617 L 812,618 L 812,620 L 811,621 L 811,623 L 810,624 L 810,625 L 809,626 L 809,628 L 808,629 L 808,631 L 807,632 L 807,634 L 806,635 L 806,637 L 805,638 L 805,640 L 804,641 L 804,642 L 803,643 L 803,645 L 802,646 L 802,648 L 801,649 L 801,651 L 800,652 L 800,653 L 799,654 L 799,656 L 798,657 L 798,659 L 797,660 L 797,662 L 796,663 L 796,665 L 795,666 L 795,668 L 794,669 L 794,672 L 793,673 L 793,676 L 792,677 L 792,679 L 793,680 L 819,680 L 820,679 L 820,678 L 821,677 L 821,675 L 822,674 L 822,673 L 823,672 L 823,670 L 824,669 L 824,667 L 825,666 L 825,665 L 826,664 L 826,662 L 828,660 L 828,659 L 829,658 L 830,658 L 831,657 L 834,657 L 835,656 L 869,656 L 870,657 L 873,657 L 874,658 L 875,658 L 876,659 L 876,660 L 878,662 L 878,664 L 879,665 L 879,666 L 880,667 L 880,669 L 881,670 L 881,672 L 882,673 L 882,674 L 883,675 L 883,677 L 884,678 L 884,679 L 885,680 L 912,680 L 913,679 L 913,677 L 912,676 L 912,672 L 911,671 L 911,669 L 910,668 L 910,666 L 909,665 L 909,663 L 908,662 L 908,660 L 907,659 L 907,658 L 906,657 L 906,655 L 905,654 L 905,652 L 904,651 L 904,649 L 903,648 L 903,647 L 902,646 L 902,644 L 901,643 L 901,641 L 900,640 L 900,639 L 899,638 L 899,636 L 898,635 L 898,633 L 897,632 L 897,630 L 896,629 L 896,627 L 895,626 L 895,624 L 894,623 L 894,621 L 893,620 L 893,618 L 892,617 L 892,615 L 891,614 L 891,612 L 890,611 L 890,609 L 889,608 L 889,606 L 888,605 L 888,604 L 887,603 L 887,601 L 886,600 L 886,598 L 885,597 L 885,595 L 884,594 L 884,592 L 883,591 L 883,590 L 882,589 L 882,587 L 881,586 L 881,584 L 880,583 L 880,581 L 879,580 L 879,579 L 878,578 L 878,576 L 877,575 L 877,573 L 876,572 L 876,570 L 875,569 L 875,567 L 874,566 L 874,563 L 873,562 L 873,560 L 872,559 L 872,558 L 871,557 L 871,555 L 870,554 L 870,553 L 869,552 L 869,551 L 868,551 L 867,550 Z" fill="black" /><path d="M 925,548 L 923,550 L 923,666 L 924,667 L 924,669 L 925,670 L 925,671 L 931,677 L 932,677 L 933,678 L 935,678 L 936,679 L 939,679 L 940,680 L 959,680 L 959,676 L 960,675 L 960,661 L 959,660 L 959,657 L 956,657 L 954,655 L 953,655 L 951,653 L 951,652 L 950,651 L 950,650 L 949,649 L 949,550 L 947,548 Z" fill="black" /><path d="M 895,430 L 894,431 L 894,522 L 895,523 L 897,523 L 898,524 L 916,524 L 917,523 L 919,523 L 919,518 L 920,517 L 920,437 L 919,436 L 919,430 Z" fill="black" /><path d="M 1276,428 L 1275,429 L 1271,429 L 1270,430 L 1268,430 L 1267,431 L 1265,431 L 1264,432 L 1263,432 L 1262,433 L 1261,433 L 1260,434 L 1259,434 L 1252,441 L 1252,442 L 1250,444 L 1250,445 L 1248,447 L 1248,449 L 1247,450 L 1247,452 L 1246,453 L 1246,459 L 1247,460 L 1270,460 L 1271,459 L 1272,459 L 1272,457 L 1276,453 L 1277,453 L 1279,451 L 1282,451 L 1283,450 L 1289,450 L 1290,451 L 1292,451 L 1293,452 L 1294,452 L 1298,456 L 1298,457 L 1299,458 L 1299,463 L 1296,466 L 1295,466 L 1294,467 L 1271,467 L 1270,468 L 1265,468 L 1264,469 L 1262,469 L 1261,470 L 1259,470 L 1258,471 L 1257,471 L 1256,472 L 1255,472 L 1252,475 L 1251,475 L 1251,476 L 1246,481 L 1246,482 L 1245,483 L 1245,484 L 1244,485 L 1244,487 L 1243,488 L 1243,491 L 1242,492 L 1242,501 L 1243,502 L 1243,506 L 1244,507 L 1244,508 L 1245,509 L 1245,510 L 1246,511 L 1246,512 L 1249,515 L 1249,516 L 1251,518 L 1252,518 L 1255,521 L 1256,521 L 1258,523 L 1259,523 L 1260,524 L 1262,524 L 1263,525 L 1266,525 L 1267,526 L 1284,526 L 1285,525 L 1287,525 L 1288,524 L 1290,524 L 1291,523 L 1292,523 L 1293,522 L 1294,522 L 1295,521 L 1296,521 L 1297,520 L 1299,520 L 1301,522 L 1301,523 L 1303,523 L 1304,524 L 1322,524 L 1323,523 L 1326,523 L 1326,517 L 1327,516 L 1327,459 L 1326,458 L 1326,453 L 1325,452 L 1325,450 L 1324,449 L 1324,447 L 1323,446 L 1323,445 L 1321,443 L 1321,442 L 1320,441 L 1320,440 L 1316,436 L 1315,436 L 1313,434 L 1312,434 L 1310,432 L 1308,432 L 1307,431 L 1306,431 L 1305,430 L 1302,430 L 1301,429 L 1297,429 L 1296,428 Z" fill="black" /><path d="M 1079,428 L 1078,429 L 1075,429 L 1074,430 L 1073,430 L 1072,431 L 1070,431 L 1068,433 L 1067,433 L 1066,434 L 1063,434 L 1062,433 L 1062,432 L 1061,431 L 1061,430 L 1036,430 L 1036,433 L 1035,434 L 1035,520 L 1036,521 L 1036,523 L 1038,523 L 1039,524 L 1057,524 L 1058,523 L 1061,523 L 1061,521 L 1062,520 L 1062,466 L 1063,465 L 1063,463 L 1064,462 L 1064,461 L 1065,460 L 1065,459 L 1069,455 L 1070,455 L 1072,453 L 1074,453 L 1075,452 L 1083,452 L 1084,453 L 1086,453 L 1087,454 L 1088,454 L 1093,459 L 1093,460 L 1094,461 L 1094,462 L 1095,463 L 1095,465 L 1096,466 L 1096,522 L 1097,523 L 1100,523 L 1101,524 L 1118,524 L 1119,523 L 1122,523 L 1122,521 L 1123,520 L 1123,458 L 1122,457 L 1122,453 L 1121,452 L 1121,450 L 1120,449 L 1120,448 L 1119,447 L 1119,446 L 1117,444 L 1117,443 L 1115,441 L 1115,440 L 1110,435 L 1109,435 L 1107,433 L 1106,433 L 1104,431 L 1102,431 L 1101,430 L 1099,430 L 1098,429 L 1096,429 L 1095,428 Z" fill="black" /><path d="M 969,428 L 968,429 L 964,429 L 963,430 L 961,430 L 960,431 L 959,431 L 958,432 L 956,432 L 955,433 L 954,433 L 953,434 L 952,434 L 950,436 L 949,436 L 942,443 L 942,444 L 937,449 L 937,450 L 936,451 L 936,452 L 935,453 L 935,454 L 934,455 L 934,456 L 933,457 L 933,459 L 932,460 L 932,463 L 931,464 L 931,467 L 930,468 L 930,486 L 931,487 L 931,491 L 932,492 L 932,495 L 933,496 L 933,497 L 934,498 L 934,500 L 935,501 L 935,502 L 936,503 L 936,504 L 938,506 L 938,507 L 943,512 L 943,513 L 944,514 L 945,514 L 949,518 L 950,518 L 951,519 L 952,519 L 954,521 L 955,521 L 956,522 L 957,522 L 958,523 L 960,523 L 961,524 L 963,524 L 964,525 L 967,525 L 968,526 L 988,526 L 989,525 L 992,525 L 993,524 L 995,524 L 996,523 L 998,523 L 999,522 L 1000,522 L 1001,521 L 1002,521 L 1004,519 L 1005,519 L 1006,518 L 1007,518 L 1017,508 L 1017,507 L 1018,506 L 1018,505 L 1020,503 L 1020,501 L 1021,500 L 1021,497 L 1022,496 L 1021,495 L 996,495 L 992,499 L 991,499 L 989,501 L 987,501 L 986,502 L 984,502 L 983,503 L 974,503 L 973,502 L 970,502 L 968,500 L 967,500 L 965,498 L 964,498 L 963,497 L 963,496 L 961,494 L 961,493 L 960,492 L 960,490 L 961,489 L 961,488 L 963,486 L 1018,486 L 1019,485 L 1023,485 L 1024,484 L 1024,466 L 1023,465 L 1023,461 L 1022,460 L 1022,458 L 1021,457 L 1021,455 L 1020,454 L 1020,453 L 1019,452 L 1019,451 L 1017,449 L 1017,448 L 1015,446 L 1015,445 L 1012,442 L 1012,441 L 1008,437 L 1007,437 L 1005,435 L 1004,435 L 1002,433 L 1001,433 L 1000,432 L 998,432 L 997,431 L 996,431 L 995,430 L 993,430 L 992,429 L 988,429 L 987,428 Z" fill="black" /><path d="M 798,393 L 797,394 L 790,394 L 790,399 L 789,400 L 789,412 L 790,413 L 790,419 L 798,419 L 799,420 L 819,420 L 820,421 L 821,421 L 823,423 L 823,424 L 824,425 L 824,517 L 825,518 L 825,523 L 827,523 L 828,524 L 848,524 L 849,523 L 851,523 L 852,522 L 852,426 L 853,425 L 853,424 L 857,420 L 876,420 L 877,419 L 885,419 L 885,417 L 886,416 L 886,411 L 887,410 L 887,400 L 886,399 L 886,396 L 885,395 L 885,394 L 875,394 L 874,393 L 848,393 L 847,394 L 846,394 L 845,393 L 844,393 L 843,394 L 842,393 L 802,393 L 801,394 L 800,393 Z" fill="black" /><path d="M 1206,392 L 1205,393 L 1205,427 L 1204,428 L 1204,430 L 1202,432 L 1201,432 L 1200,433 L 1199,432 L 1197,432 L 1196,431 L 1195,431 L 1194,430 L 1192,430 L 1191,429 L 1188,429 L 1187,428 L 1170,428 L 1169,429 L 1165,429 L 1164,430 L 1162,430 L 1161,431 L 1160,431 L 1159,432 L 1158,432 L 1157,433 L 1156,433 L 1155,434 L 1154,434 L 1152,436 L 1151,436 L 1142,445 L 1142,446 L 1140,448 L 1140,449 L 1139,450 L 1139,451 L 1138,452 L 1138,453 L 1137,454 L 1137,455 L 1136,456 L 1136,458 L 1135,459 L 1135,462 L 1134,463 L 1134,466 L 1133,467 L 1133,486 L 1134,487 L 1134,491 L 1135,492 L 1135,495 L 1136,496 L 1136,497 L 1137,498 L 1137,500 L 1138,501 L 1138,502 L 1139,503 L 1139,504 L 1140,505 L 1140,506 L 1142,508 L 1142,509 L 1150,517 L 1151,517 L 1153,519 L 1154,519 L 1156,521 L 1157,521 L 1158,522 L 1159,522 L 1160,523 L 1162,523 L 1163,524 L 1165,524 L 1166,525 L 1169,525 L 1170,526 L 1187,526 L 1188,525 L 1191,525 L 1192,524 L 1193,524 L 1194,523 L 1195,523 L 1196,522 L 1197,522 L 1199,520 L 1204,520 L 1205,521 L 1205,523 L 1208,523 L 1209,524 L 1226,524 L 1227,523 L 1230,523 L 1231,522 L 1231,393 L 1230,392 Z" fill="black" /><path d="M 905,388 L 904,389 L 901,389 L 900,390 L 899,390 L 893,396 L 893,397 L 892,398 L 892,400 L 891,401 L 891,407 L 892,408 L 892,409 L 894,411 L 894,412 L 897,415 L 898,415 L 899,416 L 900,416 L 901,417 L 903,417 L 904,418 L 911,418 L 912,417 L 914,417 L 915,416 L 916,416 L 920,412 L 920,411 L 922,409 L 922,407 L 923,406 L 923,401 L 922,400 L 922,398 L 921,397 L 921,396 L 919,394 L 919,393 L 918,392 L 917,392 L 915,390 L 914,390 L 913,389 L 911,389 L 910,388 Z" fill="black" /><path d="M 658,371 L 657,372 L 656,372 L 655,373 L 654,373 L 650,377 L 650,378 L 647,381 L 647,382 L 644,385 L 644,386 L 642,388 L 642,389 L 640,391 L 640,392 L 638,394 L 638,395 L 636,397 L 636,398 L 634,400 L 634,401 L 632,403 L 632,404 L 630,406 L 630,407 L 628,409 L 628,410 L 626,412 L 626,413 L 623,416 L 623,417 L 621,419 L 621,420 L 619,422 L 619,423 L 617,425 L 617,426 L 615,428 L 615,429 L 612,432 L 612,433 L 610,435 L 610,436 L 608,438 L 608,439 L 605,442 L 605,443 L 603,445 L 603,446 L 601,448 L 601,449 L 599,451 L 599,452 L 597,454 L 597,455 L 595,457 L 595,458 L 592,461 L 592,462 L 590,464 L 590,465 L 588,467 L 588,468 L 586,470 L 586,471 L 584,473 L 584,474 L 582,476 L 582,477 L 580,479 L 580,480 L 578,482 L 578,483 L 576,485 L 576,486 L 574,488 L 574,489 L 571,492 L 571,493 L 569,495 L 569,496 L 567,498 L 567,499 L 565,501 L 565,502 L 562,505 L 562,506 L 560,508 L 560,509 L 558,511 L 558,512 L 556,514 L 556,515 L 554,517 L 554,518 L 552,520 L 552,521 L 550,523 L 550,524 L 547,527 L 547,528 L 545,530 L 545,531 L 543,533 L 543,534 L 541,536 L 541,537 L 539,539 L 539,540 L 537,542 L 537,543 L 535,545 L 535,546 L 533,548 L 533,549 L 530,552 L 530,553 L 528,555 L 528,556 L 526,558 L 526,559 L 523,562 L 523,563 L 521,565 L 521,566 L 519,568 L 519,569 L 517,571 L 517,572 L 515,574 L 515,575 L 513,577 L 513,578 L 511,580 L 511,581 L 510,582 L 510,583 L 508,585 L 508,586 L 507,587 L 507,588 L 506,589 L 507,590 L 506,591 L 506,594 L 507,595 L 506,596 L 506,597 L 507,598 L 507,599 L 511,603 L 512,603 L 513,604 L 514,604 L 515,605 L 516,604 L 517,605 L 520,605 L 521,604 L 522,604 L 523,605 L 524,604 L 527,604 L 528,603 L 530,603 L 531,602 L 533,602 L 534,601 L 536,601 L 537,600 L 539,600 L 540,599 L 541,599 L 542,598 L 544,598 L 545,597 L 547,597 L 548,596 L 550,596 L 551,595 L 553,595 L 554,594 L 556,594 L 557,593 L 559,593 L 560,592 L 562,592 L 563,591 L 565,591 L 566,590 L 568,590 L 569,589 L 571,589 L 572,588 L 574,588 L 575,587 L 577,587 L 578,586 L 580,586 L 581,585 L 583,585 L 584,584 L 586,584 L 587,583 L 590,583 L 591,582 L 594,582 L 596,584 L 596,587 L 595,588 L 595,589 L 593,591 L 593,592 L 591,594 L 591,595 L 589,597 L 589,598 L 586,601 L 586,602 L 584,604 L 584,605 L 582,607 L 582,608 L 580,610 L 580,611 L 578,613 L 578,614 L 576,616 L 576,617 L 573,620 L 573,621 L 571,623 L 571,624 L 568,627 L 568,628 L 565,631 L 565,632 L 563,634 L 563,635 L 561,637 L 561,638 L 559,640 L 559,641 L 556,644 L 556,645 L 554,647 L 554,648 L 551,651 L 551,652 L 549,654 L 549,655 L 547,657 L 547,658 L 544,661 L 544,662 L 542,664 L 542,665 L 540,667 L 540,668 L 538,670 L 538,671 L 536,673 L 536,674 L 535,675 L 535,676 L 534,677 L 534,678 L 533,679 L 533,684 L 534,685 L 534,686 L 535,687 L 535,688 L 538,691 L 539,691 L 540,692 L 760,692 L 761,691 L 762,691 L 763,690 L 764,690 L 768,686 L 768,684 L 769,683 L 769,675 L 768,674 L 768,671 L 767,670 L 767,668 L 766,667 L 766,665 L 765,664 L 765,662 L 764,661 L 764,659 L 763,658 L 763,655 L 762,654 L 762,652 L 761,651 L 761,648 L 760,647 L 760,645 L 759,644 L 759,641 L 758,640 L 758,638 L 757,637 L 757,635 L 756,634 L 756,632 L 755,631 L 755,629 L 754,628 L 754,626 L 753,625 L 753,623 L 752,622 L 752,621 L 751,620 L 751,618 L 750,617 L 750,615 L 749,614 L 749,613 L 748,612 L 748,610 L 747,609 L 747,608 L 746,607 L 746,605 L 745,604 L 745,602 L 744,601 L 744,600 L 743,599 L 743,598 L 742,597 L 742,596 L 741,595 L 741,593 L 740,592 L 740,591 L 739,590 L 739,589 L 738,588 L 738,587 L 737,586 L 737,585 L 736,584 L 736,583 L 735,582 L 735,581 L 734,580 L 734,579 L 733,578 L 733,577 L 732,576 L 732,575 L 731,574 L 731,573 L 730,572 L 730,571 L 729,570 L 729,569 L 727,567 L 727,566 L 726,565 L 726,564 L 725,563 L 725,562 L 723,560 L 723,559 L 722,558 L 722,557 L 721,556 L 721,555 L 720,554 L 720,553 L 718,551 L 718,550 L 717,549 L 717,545 L 718,544 L 718,543 L 719,542 L 720,542 L 721,541 L 722,541 L 723,540 L 724,540 L 725,539 L 727,539 L 728,538 L 731,538 L 732,537 L 734,537 L 735,536 L 737,536 L 738,535 L 740,535 L 741,534 L 743,534 L 744,533 L 747,533 L 748,532 L 750,532 L 751,531 L 752,531 L 753,530 L 756,530 L 758,528 L 760,528 L 761,527 L 762,527 L 766,523 L 766,522 L 767,521 L 767,517 L 768,516 L 768,513 L 767,512 L 767,509 L 766,508 L 766,507 L 765,506 L 765,505 L 763,503 L 763,502 L 761,500 L 761,499 L 758,496 L 758,495 L 756,493 L 756,492 L 754,490 L 754,489 L 751,486 L 751,485 L 749,483 L 749,482 L 746,479 L 746,478 L 744,476 L 744,475 L 742,473 L 742,472 L 740,470 L 740,469 L 737,466 L 737,465 L 735,463 L 735,462 L 732,459 L 732,458 L 729,455 L 729,454 L 727,452 L 727,451 L 725,449 L 725,448 L 722,445 L 722,444 L 720,442 L 720,441 L 718,439 L 718,438 L 715,435 L 715,434 L 713,432 L 713,431 L 710,428 L 710,427 L 708,425 L 708,424 L 706,422 L 706,421 L 704,419 L 704,418 L 702,416 L 702,415 L 700,413 L 700,412 L 698,410 L 698,409 L 697,409 L 696,408 L 696,407 L 695,406 L 695,405 L 692,402 L 692,401 L 690,399 L 690,398 L 687,395 L 687,394 L 685,392 L 685,391 L 683,389 L 683,388 L 680,385 L 680,384 L 678,382 L 678,381 L 675,378 L 675,377 L 672,374 L 671,374 L 669,372 L 667,372 L 666,371 Z" fill="black" /></svg>